<svg width="28" height="29" viewBox="0 0 28 29" fill="none" xmlns="http://www.w3.org/2000/svg">
<path d="M20.5676 7.31161C20.3469 7.09084 20.0848 6.9157 19.7964 6.79622C19.5079 6.67673 19.1988 6.61523 18.8866 6.61523C18.5744 6.61523 18.2652 6.67673 17.9768 6.79622C17.6884 6.9157 17.4263 7.09084 17.2056 7.31161L15.5242 8.99223L14.964 8.43123C14.8903 8.35766 14.803 8.29932 14.7068 8.25952C14.6106 8.21973 14.5076 8.19927 14.4035 8.1993C14.2994 8.19934 14.1964 8.21987 14.1002 8.25974C14.0041 8.2996 13.9167 8.35801 13.8432 8.43163C13.7696 8.50525 13.7112 8.59263 13.6715 8.6888C13.6317 8.78497 13.6112 8.88803 13.6112 8.99211C13.6113 9.09619 13.6318 9.19924 13.6717 9.29538C13.7115 9.39152 13.7699 9.47886 13.8436 9.55243L18.326 14.0341C18.476 14.1749 18.6749 14.2519 18.8807 14.2487C19.0865 14.2455 19.2829 14.1624 19.4285 14.0169C19.5741 13.8715 19.6573 13.6751 19.6607 13.4693C19.664 13.2636 19.5872 13.0646 19.4464 12.9144L18.8862 12.3542L20.5676 10.6728C21.0132 10.2271 21.2636 9.62255 21.2636 8.99223C21.2636 8.3619 21.0132 7.75739 20.5676 7.31161Z" fill="white"/>
<path fill-rule="evenodd" clip-rule="evenodd" d="M13.8682 10.6491L7.70518 16.8129C7.35739 17.1605 7.12592 17.6074 7.04262 18.092C6.95932 18.5766 7.0283 19.0751 7.24006 19.5188L6 20.7589L7.12041 21.8801L8.36046 20.6393C8.80416 20.8511 9.30262 20.9202 9.78721 20.8371C10.2718 20.7539 10.7187 20.5226 11.0664 20.1749L17.2294 14.0119L13.8682 10.6491ZM14.9886 14.0111L13.8682 12.8907L8.82558 17.9333C8.68125 18.0828 8.60138 18.2829 8.60319 18.4907C8.60499 18.6984 8.68832 18.8972 8.83524 19.0441C8.98215 19.191 9.18088 19.2743 9.38864 19.2761C9.5964 19.2779 9.79655 19.1981 9.94599 19.0537L14.9886 14.0111Z" fill="white"/>
</svg>
